<svg width="20" height="16" viewBox="0 0 20 16" fill="none" xmlns="http://www.w3.org/2000/svg">
<path opacity="0.8" d="M0.875 5.27694V12.875C0.875 13.6872 1.19766 14.4662 1.77199 15.0405C2.34632 15.6148 3.12527 15.9375 3.9375 15.9375H16.1875C16.9997 15.9375 17.7787 15.6148 18.353 15.0405C18.9273 14.4662 19.25 13.6872 19.25 12.875V3.6875C19.25 2.87527 18.9273 2.09632 18.353 1.52199C17.7787 0.947655 16.9997 0.625 16.1875 0.625H3.9375C3.12527 0.625 2.34632 0.947655 1.77199 1.52199C1.19766 2.09632 0.875 2.87527 0.875 3.6875V5.27694ZM3.9375 2.15625H16.1875C16.5936 2.15625 16.9831 2.31758 17.2703 2.60474C17.5574 2.89191 17.7188 3.28139 17.7188 3.6875V4.82062L10.0625 8.94275L2.40625 4.82062V3.6875C2.40625 3.28139 2.56758 2.89191 2.85474 2.60474C3.14191 2.31758 3.53139 2.15625 3.9375 2.15625ZM2.40625 6.56012L9.69959 10.4862C9.81113 10.5463 9.93583 10.5777 10.0625 10.5777C10.1892 10.5777 10.3139 10.5463 10.4254 10.4862L17.7188 6.56012V12.875C17.7188 13.2811 17.5574 13.6706 17.2703 13.9578C16.9831 14.2449 16.5936 14.4062 16.1875 14.4062H3.9375C3.53139 14.4062 3.14191 14.2449 2.85474 13.9578C2.56758 13.6706 2.40625 13.2811 2.40625 12.875V6.56012Z" fill="#121212"/>
</svg>
